ISO-10303-21;
HEADER;
/* Generated by software containing ST-Developer
 * from STEP Tools, Inc. (www.steptools.com) 
 */

FILE_DESCRIPTION(
/* description */ (''),
/* implementation_level */ '2;1');

FILE_NAME(
/* name */ '3mm_SquareLed_Red.step',
/* time_stamp */ '2026-05-29T10:22:12+02:00',
/* author */ ('tomma'),
/* organization */ (''),
/* preprocessor_version */ 'ST-DEVELOPER v20',
/* originating_system */ 'Autodesk Inventor 2025',
/* authorisation */ '');

FILE_SCHEMA (('AUTOMOTIVE_DESIGN { 1 0 10303 214 3 1 1 }'));
ENDSEC;

DATA;
#10=MECHANICAL_DESIGN_GEOMETRIC_PRESENTATION_REPRESENTATION('',(#13,#14,
#15),#692);
#11=SHAPE_REPRESENTATION_RELATIONSHIP('SRR','None',#699,#12);
#12=ADVANCED_BREP_SHAPE_REPRESENTATION('',(#16,#17,#18),#691);
#13=STYLED_ITEM('',(#709),#16);
#14=STYLED_ITEM('',(#710),#17);
#15=STYLED_ITEM('',(#710),#18);
#16=MANIFOLD_SOLID_BREP('Solid1',#421);
#17=MANIFOLD_SOLID_BREP('Solid2',#422);
#18=MANIFOLD_SOLID_BREP('Solid2',#423);
#19=FACE_OUTER_BOUND('',#43,.T.);
#20=FACE_OUTER_BOUND('',#44,.T.);
#21=FACE_OUTER_BOUND('',#45,.T.);
#22=FACE_OUTER_BOUND('',#46,.T.);
#23=FACE_OUTER_BOUND('',#47,.T.);
#24=FACE_OUTER_BOUND('',#48,.T.);
#25=FACE_OUTER_BOUND('',#49,.T.);
#26=FACE_OUTER_BOUND('',#50,.T.);
#27=FACE_OUTER_BOUND('',#51,.T.);
#28=FACE_OUTER_BOUND('',#52,.T.);
#29=FACE_OUTER_BOUND('',#53,.T.);
#30=FACE_OUTER_BOUND('',#54,.T.);
#31=FACE_OUTER_BOUND('',#55,.T.);
#32=FACE_OUTER_BOUND('',#56,.T.);
#33=FACE_OUTER_BOUND('',#57,.T.);
#34=FACE_OUTER_BOUND('',#58,.T.);
#35=FACE_OUTER_BOUND('',#59,.T.);
#36=FACE_OUTER_BOUND('',#60,.T.);
#37=FACE_OUTER_BOUND('',#61,.T.);
#38=FACE_OUTER_BOUND('',#62,.T.);
#39=FACE_OUTER_BOUND('',#63,.T.);
#40=FACE_OUTER_BOUND('',#64,.T.);
#41=FACE_OUTER_BOUND('',#65,.T.);
#42=FACE_OUTER_BOUND('',#66,.T.);
#43=EDGE_LOOP('',(#265,#266,#267,#268));
#44=EDGE_LOOP('',(#269,#270,#271,#272));
#45=EDGE_LOOP('',(#273,#274,#275,#276));
#46=EDGE_LOOP('',(#277,#278,#279,#280));
#47=EDGE_LOOP('',(#281,#282,#283,#284));
#48=EDGE_LOOP('',(#285,#286,#287,#288));
#49=EDGE_LOOP('',(#289,#290,#291,#292,#293,#294,#295));
#50=EDGE_LOOP('',(#296,#297,#298,#299));
#51=EDGE_LOOP('',(#300,#301,#302,#303));
#52=EDGE_LOOP('',(#304,#305,#306,#307));
#53=EDGE_LOOP('',(#308,#309,#310,#311));
#54=EDGE_LOOP('',(#312,#313,#314,#315));
#55=EDGE_LOOP('',(#316,#317,#318,#319));
#56=EDGE_LOOP('',(#320,#321,#322,#323));
#57=EDGE_LOOP('',(#324,#325,#326,#327,#328,#329,#330));
#58=EDGE_LOOP('',(#331,#332,#333,#334,#335,#336,#337));
#59=EDGE_LOOP('',(#338,#339,#340,#341));
#60=EDGE_LOOP('',(#342,#343,#344,#345));
#61=EDGE_LOOP('',(#346,#347,#348,#349));
#62=EDGE_LOOP('',(#350,#351,#352,#353));
#63=EDGE_LOOP('',(#354,#355,#356,#357));
#64=EDGE_LOOP('',(#358,#359,#360,#361));
#65=EDGE_LOOP('',(#362,#363,#364,#365));
#66=EDGE_LOOP('',(#366,#367,#368,#369,#370,#371,#372));
#67=LINE('',#578,#121);
#68=LINE('',#580,#122);
#69=LINE('',#582,#123);
#70=LINE('',#583,#124);
#71=LINE('',#586,#125);
#72=LINE('',#588,#126);
#73=LINE('',#589,#127);
#74=LINE('',#592,#128);
#75=LINE('',#594,#129);
#76=LINE('',#595,#130);
#77=LINE('',#597,#131);
#78=LINE('',#598,#132);
#79=LINE('',#604,#133);
#80=LINE('',#606,#134);
#81=LINE('',#608,#135);
#82=LINE('',#610,#136);
#83=LINE('',#612,#137);
#84=LINE('',#614,#138);
#85=LINE('',#615,#139);
#86=LINE('',#618,#140);
#87=LINE('',#620,#141);
#88=LINE('',#621,#142);
#89=LINE('',#624,#143);
#90=LINE('',#625,#144);
#91=LINE('',#628,#145);
#92=LINE('',#629,#146);
#93=LINE('',#632,#147);
#94=LINE('',#633,#148);
#95=LINE('',#636,#149);
#96=LINE('',#637,#150);
#97=LINE('',#640,#151);
#98=LINE('',#641,#152);
#99=LINE('',#643,#153);
#100=LINE('',#648,#154);
#101=LINE('',#650,#155);
#102=LINE('',#652,#156);
#103=LINE('',#654,#157);
#104=LINE('',#656,#158);
#105=LINE('',#658,#159);
#106=LINE('',#659,#160);
#107=LINE('',#662,#161);
#108=LINE('',#664,#162);
#109=LINE('',#665,#163);
#110=LINE('',#668,#164);
#111=LINE('',#669,#165);
#112=LINE('',#672,#166);
#113=LINE('',#673,#167);
#114=LINE('',#676,#168);
#115=LINE('',#677,#169);
#116=LINE('',#680,#170);
#117=LINE('',#681,#171);
#118=LINE('',#684,#172);
#119=LINE('',#685,#173);
#120=LINE('',#687,#174);
#121=VECTOR('',#474,10.);
#122=VECTOR('',#475,10.);
#123=VECTOR('',#476,10.);
#124=VECTOR('',#477,10.);
#125=VECTOR('',#480,10.);
#126=VECTOR('',#481,10.);
#127=VECTOR('',#482,10.);
#128=VECTOR('',#485,10.);
#129=VECTOR('',#486,10.);
#130=VECTOR('',#487,10.);
#131=VECTOR('',#490,10.);
#132=VECTOR('',#491,10.);
#133=VECTOR('',#498,10.);
#134=VECTOR('',#499,10.);
#135=VECTOR('',#500,10.);
#136=VECTOR('',#501,10.);
#137=VECTOR('',#502,10.);
#138=VECTOR('',#503,10.);
#139=VECTOR('',#504,10.);
#140=VECTOR('',#507,10.);
#141=VECTOR('',#508,10.);
#142=VECTOR('',#509,10.);
#143=VECTOR('',#512,10.);
#144=VECTOR('',#513,10.);
#145=VECTOR('',#516,10.);
#146=VECTOR('',#517,10.);
#147=VECTOR('',#520,10.);
#148=VECTOR('',#521,10.);
#149=VECTOR('',#524,10.);
#150=VECTOR('',#525,10.);
#151=VECTOR('',#528,10.);
#152=VECTOR('',#529,10.);
#153=VECTOR('',#532,10.);
#154=VECTOR('',#537,10.);
#155=VECTOR('',#538,10.);
#156=VECTOR('',#539,10.);
#157=VECTOR('',#540,10.);
#158=VECTOR('',#541,10.);
#159=VECTOR('',#542,10.);
#160=VECTOR('',#543,10.);
#161=VECTOR('',#546,10.);
#162=VECTOR('',#547,10.);
#163=VECTOR('',#548,10.);
#164=VECTOR('',#551,10.);
#165=VECTOR('',#552,10.);
#166=VECTOR('',#555,10.);
#167=VECTOR('',#556,10.);
#168=VECTOR('',#559,10.);
#169=VECTOR('',#560,10.);
#170=VECTOR('',#563,10.);
#171=VECTOR('',#564,10.);
#172=VECTOR('',#567,10.);
#173=VECTOR('',#568,10.);
#174=VECTOR('',#571,10.);
#175=VERTEX_POINT('',#576);
#176=VERTEX_POINT('',#577);
#177=VERTEX_POINT('',#579);
#178=VERTEX_POINT('',#581);
#179=VERTEX_POINT('',#585);
#180=VERTEX_POINT('',#587);
#181=VERTEX_POINT('',#591);
#182=VERTEX_POINT('',#593);
#183=VERTEX_POINT('',#602);
#184=VERTEX_POINT('',#603);
#185=VERTEX_POINT('',#605);
#186=VERTEX_POINT('',#607);
#187=VERTEX_POINT('',#609);
#188=VERTEX_POINT('',#611);
#189=VERTEX_POINT('',#613);
#190=VERTEX_POINT('',#617);
#191=VERTEX_POINT('',#619);
#192=VERTEX_POINT('',#623);
#193=VERTEX_POINT('',#627);
#194=VERTEX_POINT('',#631);
#195=VERTEX_POINT('',#635);
#196=VERTEX_POINT('',#639);
#197=VERTEX_POINT('',#646);
#198=VERTEX_POINT('',#647);
#199=VERTEX_POINT('',#649);
#200=VERTEX_POINT('',#651);
#201=VERTEX_POINT('',#653);
#202=VERTEX_POINT('',#655);
#203=VERTEX_POINT('',#657);
#204=VERTEX_POINT('',#661);
#205=VERTEX_POINT('',#663);
#206=VERTEX_POINT('',#667);
#207=VERTEX_POINT('',#671);
#208=VERTEX_POINT('',#675);
#209=VERTEX_POINT('',#679);
#210=VERTEX_POINT('',#683);
#211=EDGE_CURVE('',#175,#176,#67,.T.);
#212=EDGE_CURVE('',#176,#177,#68,.T.);
#213=EDGE_CURVE('',#178,#177,#69,.T.);
#214=EDGE_CURVE('',#175,#178,#70,.T.);
#215=EDGE_CURVE('',#179,#175,#71,.T.);
#216=EDGE_CURVE('',#180,#178,#72,.T.);
#217=EDGE_CURVE('',#179,#180,#73,.T.);
#218=EDGE_CURVE('',#181,#179,#74,.T.);
#219=EDGE_CURVE('',#182,#180,#75,.T.);
#220=EDGE_CURVE('',#181,#182,#76,.T.);
#221=EDGE_CURVE('',#176,#181,#77,.T.);
#222=EDGE_CURVE('',#177,#182,#78,.T.);
#223=EDGE_CURVE('',#183,#184,#79,.T.);
#224=EDGE_CURVE('',#184,#185,#80,.T.);
#225=EDGE_CURVE('',#185,#186,#81,.T.);
#226=EDGE_CURVE('',#186,#187,#82,.T.);
#227=EDGE_CURVE('',#187,#188,#83,.T.);
#228=EDGE_CURVE('',#188,#189,#84,.T.);
#229=EDGE_CURVE('',#189,#183,#85,.T.);
#230=EDGE_CURVE('',#190,#184,#86,.T.);
#231=EDGE_CURVE('',#191,#190,#87,.T.);
#232=EDGE_CURVE('',#185,#191,#88,.T.);
#233=EDGE_CURVE('',#192,#191,#89,.T.);
#234=EDGE_CURVE('',#186,#192,#90,.T.);
#235=EDGE_CURVE('',#193,#192,#91,.T.);
#236=EDGE_CURVE('',#187,#193,#92,.T.);
#237=EDGE_CURVE('',#194,#193,#93,.T.);
#238=EDGE_CURVE('',#188,#194,#94,.T.);
#239=EDGE_CURVE('',#195,#194,#95,.T.);
#240=EDGE_CURVE('',#189,#195,#96,.T.);
#241=EDGE_CURVE('',#196,#195,#97,.T.);
#242=EDGE_CURVE('',#183,#196,#98,.T.);
#243=EDGE_CURVE('',#190,#196,#99,.T.);
#244=EDGE_CURVE('',#197,#198,#100,.T.);
#245=EDGE_CURVE('',#198,#199,#101,.T.);
#246=EDGE_CURVE('',#199,#200,#102,.T.);
#247=EDGE_CURVE('',#200,#201,#103,.T.);
#248=EDGE_CURVE('',#201,#202,#104,.T.);
#249=EDGE_CURVE('',#202,#203,#105,.T.);
#250=EDGE_CURVE('',#203,#197,#106,.T.);
#251=EDGE_CURVE('',#204,#198,#107,.T.);
#252=EDGE_CURVE('',#205,#204,#108,.T.);
#253=EDGE_CURVE('',#199,#205,#109,.T.);
#254=EDGE_CURVE('',#206,#205,#110,.T.);
#255=EDGE_CURVE('',#200,#206,#111,.T.);
#256=EDGE_CURVE('',#207,#206,#112,.T.);
#257=EDGE_CURVE('',#201,#207,#113,.T.);
#258=EDGE_CURVE('',#208,#207,#114,.T.);
#259=EDGE_CURVE('',#202,#208,#115,.T.);
#260=EDGE_CURVE('',#209,#208,#116,.T.);
#261=EDGE_CURVE('',#203,#209,#117,.T.);
#262=EDGE_CURVE('',#210,#209,#118,.T.);
#263=EDGE_CURVE('',#197,#210,#119,.T.);
#264=EDGE_CURVE('',#204,#210,#120,.T.);
#265=ORIENTED_EDGE('',*,*,#211,.T.);
#266=ORIENTED_EDGE('',*,*,#212,.T.);
#267=ORIENTED_EDGE('',*,*,#213,.F.);
#268=ORIENTED_EDGE('',*,*,#214,.F.);
#269=ORIENTED_EDGE('',*,*,#215,.T.);
#270=ORIENTED_EDGE('',*,*,#214,.T.);
#271=ORIENTED_EDGE('',*,*,#216,.F.);
#272=ORIENTED_EDGE('',*,*,#217,.F.);
#273=ORIENTED_EDGE('',*,*,#218,.T.);
#274=ORIENTED_EDGE('',*,*,#217,.T.);
#275=ORIENTED_EDGE('',*,*,#219,.F.);
#276=ORIENTED_EDGE('',*,*,#220,.F.);
#277=ORIENTED_EDGE('',*,*,#221,.T.);
#278=ORIENTED_EDGE('',*,*,#220,.T.);
#279=ORIENTED_EDGE('',*,*,#222,.F.);
#280=ORIENTED_EDGE('',*,*,#212,.F.);
#281=ORIENTED_EDGE('',*,*,#222,.T.);
#282=ORIENTED_EDGE('',*,*,#219,.T.);
#283=ORIENTED_EDGE('',*,*,#216,.T.);
#284=ORIENTED_EDGE('',*,*,#213,.T.);
#285=ORIENTED_EDGE('',*,*,#221,.F.);
#286=ORIENTED_EDGE('',*,*,#211,.F.);
#287=ORIENTED_EDGE('',*,*,#215,.F.);
#288=ORIENTED_EDGE('',*,*,#218,.F.);
#289=ORIENTED_EDGE('',*,*,#223,.T.);
#290=ORIENTED_EDGE('',*,*,#224,.T.);
#291=ORIENTED_EDGE('',*,*,#225,.T.);
#292=ORIENTED_EDGE('',*,*,#226,.T.);
#293=ORIENTED_EDGE('',*,*,#227,.T.);
#294=ORIENTED_EDGE('',*,*,#228,.T.);
#295=ORIENTED_EDGE('',*,*,#229,.T.);
#296=ORIENTED_EDGE('',*,*,#230,.F.);
#297=ORIENTED_EDGE('',*,*,#231,.F.);
#298=ORIENTED_EDGE('',*,*,#232,.F.);
#299=ORIENTED_EDGE('',*,*,#224,.F.);
#300=ORIENTED_EDGE('',*,*,#232,.T.);
#301=ORIENTED_EDGE('',*,*,#233,.F.);
#302=ORIENTED_EDGE('',*,*,#234,.F.);
#303=ORIENTED_EDGE('',*,*,#225,.F.);
#304=ORIENTED_EDGE('',*,*,#234,.T.);
#305=ORIENTED_EDGE('',*,*,#235,.F.);
#306=ORIENTED_EDGE('',*,*,#236,.F.);
#307=ORIENTED_EDGE('',*,*,#226,.F.);
#308=ORIENTED_EDGE('',*,*,#236,.T.);
#309=ORIENTED_EDGE('',*,*,#237,.F.);
#310=ORIENTED_EDGE('',*,*,#238,.F.);
#311=ORIENTED_EDGE('',*,*,#227,.F.);
#312=ORIENTED_EDGE('',*,*,#238,.T.);
#313=ORIENTED_EDGE('',*,*,#239,.F.);
#314=ORIENTED_EDGE('',*,*,#240,.F.);
#315=ORIENTED_EDGE('',*,*,#228,.F.);
#316=ORIENTED_EDGE('',*,*,#240,.T.);
#317=ORIENTED_EDGE('',*,*,#241,.F.);
#318=ORIENTED_EDGE('',*,*,#242,.F.);
#319=ORIENTED_EDGE('',*,*,#229,.F.);
#320=ORIENTED_EDGE('',*,*,#242,.T.);
#321=ORIENTED_EDGE('',*,*,#243,.F.);
#322=ORIENTED_EDGE('',*,*,#230,.T.);
#323=ORIENTED_EDGE('',*,*,#223,.F.);
#324=ORIENTED_EDGE('',*,*,#243,.T.);
#325=ORIENTED_EDGE('',*,*,#241,.T.);
#326=ORIENTED_EDGE('',*,*,#239,.T.);
#327=ORIENTED_EDGE('',*,*,#237,.T.);
#328=ORIENTED_EDGE('',*,*,#235,.T.);
#329=ORIENTED_EDGE('',*,*,#233,.T.);
#330=ORIENTED_EDGE('',*,*,#231,.T.);
#331=ORIENTED_EDGE('',*,*,#244,.T.);
#332=ORIENTED_EDGE('',*,*,#245,.T.);
#333=ORIENTED_EDGE('',*,*,#246,.T.);
#334=ORIENTED_EDGE('',*,*,#247,.T.);
#335=ORIENTED_EDGE('',*,*,#248,.T.);
#336=ORIENTED_EDGE('',*,*,#249,.T.);
#337=ORIENTED_EDGE('',*,*,#250,.T.);
#338=ORIENTED_EDGE('',*,*,#251,.F.);
#339=ORIENTED_EDGE('',*,*,#252,.F.);
#340=ORIENTED_EDGE('',*,*,#253,.F.);
#341=ORIENTED_EDGE('',*,*,#245,.F.);
#342=ORIENTED_EDGE('',*,*,#253,.T.);
#343=ORIENTED_EDGE('',*,*,#254,.F.);
#344=ORIENTED_EDGE('',*,*,#255,.F.);
#345=ORIENTED_EDGE('',*,*,#246,.F.);
#346=ORIENTED_EDGE('',*,*,#255,.T.);
#347=ORIENTED_EDGE('',*,*,#256,.F.);
#348=ORIENTED_EDGE('',*,*,#257,.F.);
#349=ORIENTED_EDGE('',*,*,#247,.F.);
#350=ORIENTED_EDGE('',*,*,#257,.T.);
#351=ORIENTED_EDGE('',*,*,#258,.F.);
#352=ORIENTED_EDGE('',*,*,#259,.F.);
#353=ORIENTED_EDGE('',*,*,#248,.F.);
#354=ORIENTED_EDGE('',*,*,#259,.T.);
#355=ORIENTED_EDGE('',*,*,#260,.F.);
#356=ORIENTED_EDGE('',*,*,#261,.F.);
#357=ORIENTED_EDGE('',*,*,#249,.F.);
#358=ORIENTED_EDGE('',*,*,#261,.T.);
#359=ORIENTED_EDGE('',*,*,#262,.F.);
#360=ORIENTED_EDGE('',*,*,#263,.F.);
#361=ORIENTED_EDGE('',*,*,#250,.F.);
#362=ORIENTED_EDGE('',*,*,#263,.T.);
#363=ORIENTED_EDGE('',*,*,#264,.F.);
#364=ORIENTED_EDGE('',*,*,#251,.T.);
#365=ORIENTED_EDGE('',*,*,#244,.F.);
#366=ORIENTED_EDGE('',*,*,#264,.T.);
#367=ORIENTED_EDGE('',*,*,#262,.T.);
#368=ORIENTED_EDGE('',*,*,#260,.T.);
#369=ORIENTED_EDGE('',*,*,#258,.T.);
#370=ORIENTED_EDGE('',*,*,#256,.T.);
#371=ORIENTED_EDGE('',*,*,#254,.T.);
#372=ORIENTED_EDGE('',*,*,#252,.T.);
#373=PLANE('',#446);
#374=PLANE('',#447);
#375=PLANE('',#448);
#376=PLANE('',#449);
#377=PLANE('',#450);
#378=PLANE('',#451);
#379=PLANE('',#452);
#380=PLANE('',#453);
#381=PLANE('',#454);
#382=PLANE('',#455);
#383=PLANE('',#456);
#384=PLANE('',#457);
#385=PLANE('',#458);
#386=PLANE('',#459);
#387=PLANE('',#460);
#388=PLANE('',#461);
#389=PLANE('',#462);
#390=PLANE('',#463);
#391=PLANE('',#464);
#392=PLANE('',#465);
#393=PLANE('',#466);
#394=PLANE('',#467);
#395=PLANE('',#468);
#396=PLANE('',#469);
#397=ADVANCED_FACE('',(#19),#373,.T.);
#398=ADVANCED_FACE('',(#20),#374,.T.);
#399=ADVANCED_FACE('',(#21),#375,.T.);
#400=ADVANCED_FACE('',(#22),#376,.T.);
#401=ADVANCED_FACE('',(#23),#377,.T.);
#402=ADVANCED_FACE('',(#24),#378,.F.);
#403=ADVANCED_FACE('',(#25),#379,.T.);
#404=ADVANCED_FACE('',(#26),#380,.T.);
#405=ADVANCED_FACE('',(#27),#381,.T.);
#406=ADVANCED_FACE('',(#28),#382,.T.);
#407=ADVANCED_FACE('',(#29),#383,.T.);
#408=ADVANCED_FACE('',(#30),#384,.T.);
#409=ADVANCED_FACE('',(#31),#385,.T.);
#410=ADVANCED_FACE('',(#32),#386,.T.);
#411=ADVANCED_FACE('',(#33),#387,.T.);
#412=ADVANCED_FACE('',(#34),#388,.T.);
#413=ADVANCED_FACE('',(#35),#389,.T.);
#414=ADVANCED_FACE('',(#36),#390,.T.);
#415=ADVANCED_FACE('',(#37),#391,.T.);
#416=ADVANCED_FACE('',(#38),#392,.T.);
#417=ADVANCED_FACE('',(#39),#393,.T.);
#418=ADVANCED_FACE('',(#40),#394,.T.);
#419=ADVANCED_FACE('',(#41),#395,.T.);
#420=ADVANCED_FACE('',(#42),#396,.T.);
#421=CLOSED_SHELL('',(#397,#398,#399,#400,#401,#402));
#422=CLOSED_SHELL('',(#403,#404,#405,#406,#407,#408,#409,#410,#411));
#423=CLOSED_SHELL('',(#412,#413,#414,#415,#416,#417,#418,#419,#420));
#424=DERIVED_UNIT_ELEMENT(#427,1.);
#425=DERIVED_UNIT_ELEMENT(#694,-3.);
#426=DIMENSIONAL_EXPONENTS(0.,1.,0.,0.,0.,0.,0.);
#427=(
CONVERSION_BASED_UNIT('gram',#429)
MASS_UNIT()
NAMED_UNIT(#426)
);
#428=(
MASS_UNIT()
NAMED_UNIT(*)
SI_UNIT(.KILO.,.GRAM.)
);
#429=MASS_MEASURE_WITH_UNIT(MASS_MEASURE(0.001),#428);
#430=DERIVED_UNIT((#424,#425));
#431=MEASURE_REPRESENTATION_ITEM('density measure',
POSITIVE_RATIO_MEASURE(1.),#430);
#432=PROPERTY_DEFINITION_REPRESENTATION(#437,#434);
#433=PROPERTY_DEFINITION_REPRESENTATION(#438,#435);
#434=REPRESENTATION('material name',(#436),#691);
#435=REPRESENTATION('density',(#431),#691);
#436=DESCRIPTIVE_REPRESENTATION_ITEM('Generic','Generic');
#437=PROPERTY_DEFINITION('material property','material name',#701);
#438=PROPERTY_DEFINITION('material property','density of part',#701);
#439=DATE_TIME_ROLE('creation_date');
#440=APPLIED_DATE_AND_TIME_ASSIGNMENT(#441,#439,(#701));
#441=DATE_AND_TIME(#442,#443);
#442=CALENDAR_DATE(2026,9,4);
#443=LOCAL_TIME(0,0,0.,#444);
#444=COORDINATED_UNIVERSAL_TIME_OFFSET(0,0,.BEHIND.);
#445=AXIS2_PLACEMENT_3D('',#574,#470,#471);
#446=AXIS2_PLACEMENT_3D('',#575,#472,#473);
#447=AXIS2_PLACEMENT_3D('',#584,#478,#479);
#448=AXIS2_PLACEMENT_3D('',#590,#483,#484);
#449=AXIS2_PLACEMENT_3D('',#596,#488,#489);
#450=AXIS2_PLACEMENT_3D('',#599,#492,#493);
#451=AXIS2_PLACEMENT_3D('',#600,#494,#495);
#452=AXIS2_PLACEMENT_3D('',#601,#496,#497);
#453=AXIS2_PLACEMENT_3D('',#616,#505,#506);
#454=AXIS2_PLACEMENT_3D('',#622,#510,#511);
#455=AXIS2_PLACEMENT_3D('',#626,#514,#515);
#456=AXIS2_PLACEMENT_3D('',#630,#518,#519);
#457=AXIS2_PLACEMENT_3D('',#634,#522,#523);
#458=AXIS2_PLACEMENT_3D('',#638,#526,#527);
#459=AXIS2_PLACEMENT_3D('',#642,#530,#531);
#460=AXIS2_PLACEMENT_3D('',#644,#533,#534);
#461=AXIS2_PLACEMENT_3D('',#645,#535,#536);
#462=AXIS2_PLACEMENT_3D('',#660,#544,#545);
#463=AXIS2_PLACEMENT_3D('',#666,#549,#550);
#464=AXIS2_PLACEMENT_3D('',#670,#553,#554);
#465=AXIS2_PLACEMENT_3D('',#674,#557,#558);
#466=AXIS2_PLACEMENT_3D('',#678,#561,#562);
#467=AXIS2_PLACEMENT_3D('',#682,#565,#566);
#468=AXIS2_PLACEMENT_3D('',#686,#569,#570);
#469=AXIS2_PLACEMENT_3D('',#688,#572,#573);
#470=DIRECTION('axis',(0.,0.,1.));
#471=DIRECTION('refdir',(1.,0.,0.));
#472=DIRECTION('center_axis',(0.,0.,1.));
#473=DIRECTION('ref_axis',(1.,0.,0.));
#474=DIRECTION('',(1.,0.,0.));
#475=DIRECTION('',(0.,1.,0.));
#476=DIRECTION('',(1.,0.,0.));
#477=DIRECTION('',(0.,1.,0.));
#478=DIRECTION('center_axis',(-1.,0.,0.));
#479=DIRECTION('ref_axis',(0.,0.,1.));
#480=DIRECTION('',(0.,0.,1.));
#481=DIRECTION('',(0.,0.,1.));
#482=DIRECTION('',(0.,1.,0.));
#483=DIRECTION('center_axis',(0.,0.,-1.));
#484=DIRECTION('ref_axis',(-1.,0.,0.));
#485=DIRECTION('',(-1.,0.,0.));
#486=DIRECTION('',(-1.,0.,0.));
#487=DIRECTION('',(0.,1.,0.));
#488=DIRECTION('center_axis',(1.,0.,0.));
#489=DIRECTION('ref_axis',(0.,0.,-1.));
#490=DIRECTION('',(0.,0.,-1.));
#491=DIRECTION('',(0.,0.,-1.));
#492=DIRECTION('center_axis',(0.,1.,0.));
#493=DIRECTION('ref_axis',(0.,0.,1.));
#494=DIRECTION('center_axis',(0.,1.,0.));
#495=DIRECTION('ref_axis',(0.,0.,1.));
#496=DIRECTION('center_axis',(0.,0.,-1.));
#497=DIRECTION('ref_axis',(-1.,0.,0.));
#498=DIRECTION('',(-4.65111315803333E-16,1.,0.));
#499=DIRECTION('',(1.,8.43095613098882E-15,0.));
#500=DIRECTION('',(4.39463280580791E-16,-1.,0.));
#501=DIRECTION('',(-1.,0.,0.));
#502=DIRECTION('',(-2.16346453267519E-16,1.,0.));
#503=DIRECTION('',(-1.,2.11828993705604E-15,0.));
#504=DIRECTION('',(-0.423344610131455,0.905968730736689,0.));
#505=DIRECTION('center_axis',(-8.43095613098882E-15,1.,0.));
#506=DIRECTION('ref_axis',(-1.,-8.43095613098882E-15,0.));
#507=DIRECTION('',(0.,0.,-1.));
#508=DIRECTION('',(-1.,-8.43095613098882E-15,0.));
#509=DIRECTION('',(0.,0.,1.));
#510=DIRECTION('center_axis',(1.,4.39463280580791E-16,0.));
#511=DIRECTION('ref_axis',(-4.39463280580791E-16,1.,0.));
#512=DIRECTION('',(-4.39463280580791E-16,1.,0.));
#513=DIRECTION('',(0.,0.,1.));
#514=DIRECTION('center_axis',(0.,-1.,0.));
#515=DIRECTION('ref_axis',(1.,0.,0.));
#516=DIRECTION('',(1.,0.,0.));
#517=DIRECTION('',(0.,0.,1.));
#518=DIRECTION('center_axis',(-1.,-2.16346453267519E-16,0.));
#519=DIRECTION('ref_axis',(2.16346453267519E-16,-1.,0.));
#520=DIRECTION('',(2.16346453267519E-16,-1.,0.));
#521=DIRECTION('',(0.,0.,1.));
#522=DIRECTION('center_axis',(-2.11828993705604E-15,-1.,0.));
#523=DIRECTION('ref_axis',(1.,-2.11828993705604E-15,0.));
#524=DIRECTION('',(1.,-2.11828993705604E-15,0.));
#525=DIRECTION('',(0.,0.,1.));
#526=DIRECTION('center_axis',(-0.905968730736689,-0.423344610131455,0.));
#527=DIRECTION('ref_axis',(0.423344610131455,-0.905968730736689,0.));
#528=DIRECTION('',(0.423344610131455,-0.905968730736689,0.));
#529=DIRECTION('',(0.,0.,1.));
#530=DIRECTION('center_axis',(-1.,-4.65111315803333E-16,0.));
#531=DIRECTION('ref_axis',(4.65111315803333E-16,-1.,0.));
#532=DIRECTION('',(4.65111315803333E-16,-1.,0.));
#533=DIRECTION('center_axis',(0.,0.,1.));
#534=DIRECTION('ref_axis',(1.,0.,0.));
#535=DIRECTION('center_axis',(0.,0.,-1.));
#536=DIRECTION('ref_axis',(-1.,0.,0.));
#537=DIRECTION('',(0.,1.,0.));
#538=DIRECTION('',(1.,0.,0.));
#539=DIRECTION('',(0.,-1.,0.));
#540=DIRECTION('',(0.423344610131455,-0.905968730736689,0.));
#541=DIRECTION('',(-1.,0.,0.));
#542=DIRECTION('',(3.93445354879768E-16,-1.,0.));
#543=DIRECTION('',(-1.,0.,0.));
#544=DIRECTION('center_axis',(0.,1.,0.));
#545=DIRECTION('ref_axis',(-1.,0.,0.));
#546=DIRECTION('',(0.,0.,-1.));
#547=DIRECTION('',(-1.,0.,0.));
#548=DIRECTION('',(0.,0.,1.));
#549=DIRECTION('center_axis',(1.,0.,0.));
#550=DIRECTION('ref_axis',(0.,1.,0.));
#551=DIRECTION('',(0.,1.,0.));
#552=DIRECTION('',(0.,0.,1.));
#553=DIRECTION('center_axis',(0.905968730736689,0.423344610131455,0.));
#554=DIRECTION('ref_axis',(-0.423344610131455,0.905968730736689,0.));
#555=DIRECTION('',(-0.423344610131455,0.905968730736689,0.));
#556=DIRECTION('',(0.,0.,1.));
#557=DIRECTION('center_axis',(0.,-1.,0.));
#558=DIRECTION('ref_axis',(1.,0.,0.));
#559=DIRECTION('',(1.,0.,0.));
#560=DIRECTION('',(0.,0.,1.));
#561=DIRECTION('center_axis',(1.,3.93445354879768E-16,0.));
#562=DIRECTION('ref_axis',(-3.93445354879768E-16,1.,0.));
#563=DIRECTION('',(-3.93445354879768E-16,1.,0.));
#564=DIRECTION('',(0.,0.,1.));
#565=DIRECTION('center_axis',(0.,-1.,0.));
#566=DIRECTION('ref_axis',(1.,0.,0.));
#567=DIRECTION('',(1.,0.,0.));
#568=DIRECTION('',(0.,0.,1.));
#569=DIRECTION('center_axis',(-1.,0.,0.));
#570=DIRECTION('ref_axis',(0.,-1.,0.));
#571=DIRECTION('',(0.,-1.,0.));
#572=DIRECTION('center_axis',(0.,0.,1.));
#573=DIRECTION('ref_axis',(1.,0.,0.));
#574=CARTESIAN_POINT('',(0.,0.,0.));
#575=CARTESIAN_POINT('Origin',(-1.6,0.,1.));
#576=CARTESIAN_POINT('',(-1.6,0.,1.));
#577=CARTESIAN_POINT('',(1.6,0.,1.));
#578=CARTESIAN_POINT('',(-1.6,0.,1.));
#579=CARTESIAN_POINT('',(1.6,4.3,1.));
#580=CARTESIAN_POINT('',(1.6,0.,1.));
#581=CARTESIAN_POINT('',(-1.6,4.3,1.));
#582=CARTESIAN_POINT('',(-1.6,4.3,1.));
#583=CARTESIAN_POINT('',(-1.6,0.,1.));
#584=CARTESIAN_POINT('Origin',(-1.6,0.,-1.));
#585=CARTESIAN_POINT('',(-1.6,0.,-1.));
#586=CARTESIAN_POINT('',(-1.6,0.,-1.));
#587=CARTESIAN_POINT('',(-1.6,4.3,-1.));
#588=CARTESIAN_POINT('',(-1.6,4.3,-1.));
#589=CARTESIAN_POINT('',(-1.6,0.,-1.));
#590=CARTESIAN_POINT('Origin',(1.6,0.,-1.));
#591=CARTESIAN_POINT('',(1.6,0.,-1.));
#592=CARTESIAN_POINT('',(1.6,0.,-1.));
#593=CARTESIAN_POINT('',(1.6,4.3,-1.));
#594=CARTESIAN_POINT('',(1.6,4.3,-1.));
#595=CARTESIAN_POINT('',(1.6,0.,-1.));
#596=CARTESIAN_POINT('Origin',(1.6,0.,1.));
#597=CARTESIAN_POINT('',(1.6,0.,1.));
#598=CARTESIAN_POINT('',(1.6,4.3,1.));
#599=CARTESIAN_POINT('Origin',(0.,4.3,0.));
#600=CARTESIAN_POINT('Origin',(0.,0.,0.));
#601=CARTESIAN_POINT('Origin',(0.392071556145154,-3.,-0.2));
#602=CARTESIAN_POINT('',(-0.665856887709694,2.70162437815892,-0.2));
#603=CARTESIAN_POINT('',(-0.665856887709694,3.,-0.2));
#604=CARTESIAN_POINT('',(-0.665856887709694,3.,-0.2));
#605=CARTESIAN_POINT('',(1.45,3.,-0.2));
#606=CARTESIAN_POINT('',(1.45,3.,-0.2));
#607=CARTESIAN_POINT('',(1.45,-9.,-0.2));
#608=CARTESIAN_POINT('',(1.45,-9.,-0.2));
#609=CARTESIAN_POINT('',(0.950000000000002,-9.,-0.2));
#610=CARTESIAN_POINT('',(0.950000000000002,-9.,-0.2));
#611=CARTESIAN_POINT('',(0.95,1.26338086765243,-0.2));
#612=CARTESIAN_POINT('',(0.95,1.26338086765243,-0.2));
#613=CARTESIAN_POINT('',(0.0062111622928257,1.26338086765243,-0.2));
#614=CARTESIAN_POINT('',(0.0062111622928257,1.26338086765243,-0.2));
#615=CARTESIAN_POINT('',(-0.665856887709694,2.70162437815892,-0.2));
#616=CARTESIAN_POINT('Origin',(1.45,3.,0.));
#617=CARTESIAN_POINT('',(-0.665856887709694,3.,0.2));
#618=CARTESIAN_POINT('',(-0.665856887709694,3.,0.));
#619=CARTESIAN_POINT('',(1.45,3.,0.2));
#620=CARTESIAN_POINT('',(1.45,3.,0.2));
#621=CARTESIAN_POINT('',(1.45,3.,0.));
#622=CARTESIAN_POINT('Origin',(1.45,-9.,0.));
#623=CARTESIAN_POINT('',(1.45,-9.,0.2));
#624=CARTESIAN_POINT('',(1.45,-9.,0.2));
#625=CARTESIAN_POINT('',(1.45,-9.,0.));
#626=CARTESIAN_POINT('Origin',(0.950000000000002,-9.,0.));
#627=CARTESIAN_POINT('',(0.950000000000002,-9.,0.2));
#628=CARTESIAN_POINT('',(0.950000000000002,-9.,0.2));
#629=CARTESIAN_POINT('',(0.950000000000002,-9.,0.));
#630=CARTESIAN_POINT('Origin',(0.95,1.26338086765243,0.));
#631=CARTESIAN_POINT('',(0.95,1.26338086765243,0.2));
#632=CARTESIAN_POINT('',(0.95,1.26338086765243,0.2));
#633=CARTESIAN_POINT('',(0.95,1.26338086765243,0.));
#634=CARTESIAN_POINT('Origin',(0.0062111622928257,1.26338086765243,0.));
#635=CARTESIAN_POINT('',(0.0062111622928257,1.26338086765243,0.2));
#636=CARTESIAN_POINT('',(0.0062111622928257,1.26338086765243,0.2));
#637=CARTESIAN_POINT('',(0.0062111622928257,1.26338086765243,0.));
#638=CARTESIAN_POINT('Origin',(-0.665856887709694,2.70162437815892,0.));
#639=CARTESIAN_POINT('',(-0.665856887709694,2.70162437815892,0.2));
#640=CARTESIAN_POINT('',(-0.665856887709694,2.70162437815892,0.2));
#641=CARTESIAN_POINT('',(-0.665856887709694,2.70162437815892,0.));
#642=CARTESIAN_POINT('Origin',(-0.665856887709694,3.,0.));
#643=CARTESIAN_POINT('',(-0.665856887709694,3.,0.2));
#644=CARTESIAN_POINT('Origin',(0.392071556145154,-3.,0.2));
#645=CARTESIAN_POINT('Origin',(-0.882941718465311,-2.44928561874572,-0.2));
#646=CARTESIAN_POINT('',(-1.45,-8.,-0.2));
#647=CARTESIAN_POINT('',(-1.45,3.10142876250857,-0.2));
#648=CARTESIAN_POINT('',(-1.45,3.10142876250857,-0.2));
#649=CARTESIAN_POINT('',(-0.839395987952362,3.10142876250857,-0.2));
#650=CARTESIAN_POINT('',(-0.839395987952362,3.10142876250857,-0.2));
#651=CARTESIAN_POINT('',(-0.839395987952362,2.64389654445576,-0.2));
#652=CARTESIAN_POINT('',(-0.839395987952362,2.64389654445576,-0.2));
#653=CARTESIAN_POINT('',(-0.315883436930621,1.52356575477919,-0.2));
#654=CARTESIAN_POINT('',(-0.315883436930621,1.52356575477919,-0.2));
#655=CARTESIAN_POINT('',(-0.950000000000003,1.52356575477919,-0.2));
#656=CARTESIAN_POINT('',(-0.950000000000003,1.52356575477919,-0.2));
#657=CARTESIAN_POINT('',(-0.95,-8.,-0.2));
#658=CARTESIAN_POINT('',(-0.95,-8.,-0.2));
#659=CARTESIAN_POINT('',(-1.45,-8.,-0.2));
#660=CARTESIAN_POINT('Origin',(-0.839395987952362,3.10142876250857,0.));
#661=CARTESIAN_POINT('',(-1.45,3.10142876250857,0.2));
#662=CARTESIAN_POINT('',(-1.45,3.10142876250857,0.));
#663=CARTESIAN_POINT('',(-0.839395987952362,3.10142876250857,0.2));
#664=CARTESIAN_POINT('',(-0.839395987952362,3.10142876250857,0.2));
#665=CARTESIAN_POINT('',(-0.839395987952362,3.10142876250857,0.));
#666=CARTESIAN_POINT('Origin',(-0.839395987952362,2.64389654445576,0.));
#667=CARTESIAN_POINT('',(-0.839395987952362,2.64389654445576,0.2));
#668=CARTESIAN_POINT('',(-0.839395987952362,2.64389654445576,0.2));
#669=CARTESIAN_POINT('',(-0.839395987952362,2.64389654445576,0.));
#670=CARTESIAN_POINT('Origin',(-0.315883436930621,1.52356575477919,0.));
#671=CARTESIAN_POINT('',(-0.315883436930621,1.52356575477919,0.2));
#672=CARTESIAN_POINT('',(-0.315883436930621,1.52356575477919,0.2));
#673=CARTESIAN_POINT('',(-0.315883436930621,1.52356575477919,0.));
#674=CARTESIAN_POINT('Origin',(-0.950000000000003,1.52356575477919,0.));
#675=CARTESIAN_POINT('',(-0.950000000000003,1.52356575477919,0.2));
#676=CARTESIAN_POINT('',(-0.950000000000003,1.52356575477919,0.2));
#677=CARTESIAN_POINT('',(-0.950000000000003,1.52356575477919,0.));
#678=CARTESIAN_POINT('Origin',(-0.95,-8.,0.));
#679=CARTESIAN_POINT('',(-0.95,-8.,0.2));
#680=CARTESIAN_POINT('',(-0.95,-8.,0.2));
#681=CARTESIAN_POINT('',(-0.95,-8.,0.));
#682=CARTESIAN_POINT('Origin',(-1.45,-8.,0.));
#683=CARTESIAN_POINT('',(-1.45,-8.,0.2));
#684=CARTESIAN_POINT('',(-1.45,-8.,0.2));
#685=CARTESIAN_POINT('',(-1.45,-8.,0.));
#686=CARTESIAN_POINT('Origin',(-1.45,3.10142876250857,0.));
#687=CARTESIAN_POINT('',(-1.45,3.10142876250857,0.2));
#688=CARTESIAN_POINT('Origin',(-0.882941718465311,-2.44928561874572,0.2));
#689=UNCERTAINTY_MEASURE_WITH_UNIT(LENGTH_MEASURE(0.01),#693,
'DISTANCE_ACCURACY_VALUE',
'Maximum model space distance between geometric entities at asserted c
onnectivities');
#690=UNCERTAINTY_MEASURE_WITH_UNIT(LENGTH_MEASURE(0.01),#693,
'DISTANCE_ACCURACY_VALUE',
'Maximum model space distance between geometric entities at asserted c
onnectivities');
#691=(
GEOMETRIC_REPRESENTATION_CONTEXT(3)
GLOBAL_UNCERTAINTY_ASSIGNED_CONTEXT((#689))
GLOBAL_UNIT_ASSIGNED_CONTEXT((#693,#695,#696))
REPRESENTATION_CONTEXT('','3D')
);
#692=(
GEOMETRIC_REPRESENTATION_CONTEXT(3)
GLOBAL_UNCERTAINTY_ASSIGNED_CONTEXT((#690))
GLOBAL_UNIT_ASSIGNED_CONTEXT((#693,#695,#696))
REPRESENTATION_CONTEXT('','3D')
);
#693=(
LENGTH_UNIT()
NAMED_UNIT(*)
SI_UNIT(.MILLI.,.METRE.)
);
#694=(
LENGTH_UNIT()
NAMED_UNIT(*)
SI_UNIT(.CENTI.,.METRE.)
);
#695=(
NAMED_UNIT(*)
PLANE_ANGLE_UNIT()
SI_UNIT($,.RADIAN.)
);
#696=(
NAMED_UNIT(*)
SI_UNIT($,.STERADIAN.)
SOLID_ANGLE_UNIT()
);
#697=SHAPE_DEFINITION_REPRESENTATION(#698,#699);
#698=PRODUCT_DEFINITION_SHAPE('',$,#701);
#699=SHAPE_REPRESENTATION('',(#445),#691);
#700=PRODUCT_DEFINITION_CONTEXT('part definition',#705,'design');
#701=PRODUCT_DEFINITION('LED_Red','3mm_SquareLed_Red',#702,#700);
#702=PRODUCT_DEFINITION_FORMATION('',$,#707);
#703=PRODUCT_RELATED_PRODUCT_CATEGORY('3mm_SquareLed_Red',
'3mm_SquareLed_Red',(#707));
#704=APPLICATION_PROTOCOL_DEFINITION('international standard',
'automotive_design',2009,#705);
#705=APPLICATION_CONTEXT(
'Core Data for Automotive Mechanical Design Process');
#706=PRODUCT_CONTEXT('part definition',#705,'mechanical');
#707=PRODUCT('LED_Red','3mm_SquareLed_Red',$,(#706));
#708=PRESENTATION_STYLE_ASSIGNMENT((#711));
#709=PRESENTATION_STYLE_ASSIGNMENT((#712));
#710=PRESENTATION_STYLE_ASSIGNMENT((#713));
#711=SURFACE_STYLE_USAGE(.BOTH.,#720);
#712=SURFACE_STYLE_USAGE(.BOTH.,#721);
#713=SURFACE_STYLE_USAGE(.BOTH.,#722);
#714=SURFACE_STYLE_RENDERING_WITH_PROPERTIES($,#732,(#717));
#715=SURFACE_STYLE_RENDERING_WITH_PROPERTIES($,#733,(#718));
#716=SURFACE_STYLE_RENDERING_WITH_PROPERTIES($,#734,(#719));
#717=SURFACE_STYLE_TRANSPARENT(0.);
#718=SURFACE_STYLE_TRANSPARENT(0.480000019073486);
#719=SURFACE_STYLE_TRANSPARENT(0.);
#720=SURFACE_SIDE_STYLE('',(#723,#714));
#721=SURFACE_SIDE_STYLE('',(#724,#715));
#722=SURFACE_SIDE_STYLE('',(#725,#716));
#723=SURFACE_STYLE_FILL_AREA(#726);
#724=SURFACE_STYLE_FILL_AREA(#727);
#725=SURFACE_STYLE_FILL_AREA(#728);
#726=FILL_AREA_STYLE('',(#729));
#727=FILL_AREA_STYLE('',(#730));
#728=FILL_AREA_STYLE('',(#731));
#729=FILL_AREA_STYLE_COLOUR('',#732);
#730=FILL_AREA_STYLE_COLOUR('',#733);
#731=FILL_AREA_STYLE_COLOUR('',#734);
#732=COLOUR_RGB('',0.749019607843137,0.749019607843137,0.749019607843137);
#733=COLOUR_RGB('',1.,0.,0.);
#734=COLOUR_RGB('',0.956862745098039,0.956862745098039,0.956862745098039);
ENDSEC;
END-ISO-10303-21;
